<svg id="Layer_1" data-name="Layer 1" xmlns="http://www.w3.org/2000/svg" viewBox="0 0 900 282.9"><path d="M191.3,212.76V77.21q-6.86-5.31-18.46-7.55a54.78,54.78,0,0,0-10.07-1.4,8.08,8.08,0,0,0-1.54.14V80.71A63.76,63.76,0,0,0,123.32,68.4a63,63,0,0,0-26.44,5.74A68.66,68.66,0,0,0,75.2,89.52a73.61,73.61,0,0,0-14.54,22.94,77,77,0,0,0,0,56.24A71.6,71.6,0,0,0,75.2,191.64,68.66,68.66,0,0,0,96.88,207a63,63,0,0,0,26.44,5.74,63.76,63.76,0,0,0,37.91-12.31v12.31ZM158.15,157A41.18,41.18,0,0,1,150,170.37a35.11,35.11,0,0,1-12,9,33.67,33.67,0,0,1-14.69,3.35,34.56,34.56,0,0,1-14.83-3.35,37.11,37.11,0,0,1-12-9A44.54,44.54,0,0,1,88.35,157a47,47,0,0,1,0-32.74,44.71,44.71,0,0,1,8.11-13.43,40,40,0,0,1,12-9,34.43,34.43,0,0,1,14.83-3.36A33.54,33.54,0,0,1,138,101.83a37.69,37.69,0,0,1,12,9,41.33,41.33,0,0,1,8.11,13.43,45,45,0,0,1,0,32.74Z"/><path d="M285,174.85a12.05,12.05,0,0,1-4.48,5.6,26,26,0,0,1-6.71,3.49,22.48,22.48,0,0,1-7.42,1.12c-1,0-2.05-.05-3.07-.14q-20.72-1.68-28.4-14.41l-.14-.42q-7.54.15-18.74,4.76a75.56,75.56,0,0,0-12.73,6.43l.14.28q2.94,4.75,4.2,6.72a56.69,56.69,0,0,0,20,17.06q12.58,6.43,31.33,7.28a63,63,0,0,0,6.3.14A79.81,79.81,0,0,0,287,209.68,48,48,0,0,0,303,202q16.09-11.48,16.09-30.08a36.44,36.44,0,0,0-2.94-14.54q-5.46-13.16-20.14-20.85a148.81,148.81,0,0,0-25.88-10.21q-12.17-3.63-16.78-5.87-10.92-5.46-11.19-13a12.74,12.74,0,0,1,1.39-5.74,12.24,12.24,0,0,1,4.62-4.61q4.62-2.81,13.71-2.8c1.3,0,2.66,0,4.06.14a40.76,40.76,0,0,1,13.56,3.08q6.3,2.79,8.12,7a2.51,2.51,0,0,1,.14.56h.56q6.28,0,15.1-3.22a60.35,60.35,0,0,0,11.47-5.45c-.09-.19-.37-.65-.84-1.4q-15.66-25.45-45-26.44c-1.49-.09-3-.14-4.47-.14a76.67,76.67,0,0,0-21.13,2.52,49.41,49.41,0,0,0-18.88,10.21q-13,11.48-13,29.93a34.53,34.53,0,0,0,5,18.61q6,9.79,18.74,15a120.55,120.55,0,0,0,12.31,4.19q11.74,3.64,12.45,3.78,13.56,4.62,15.53,5.45Q285.27,162.68,286,169v1.12A12.48,12.48,0,0,1,285,174.85Z"/><path d="M367.23,110.78a39.77,39.77,0,0,1,12-9,34.37,34.37,0,0,1,30.49.42,38.51,38.51,0,0,1,12.45,10.21h1q8,0,17.9-4.19a51.8,51.8,0,0,0,10.63-5.88,68.83,68.83,0,0,0-24.2-24.62,63.62,63.62,0,0,0-33.43-9.37,62.92,62.92,0,0,0-26.43,5.74A68.59,68.59,0,0,0,346,89.52a73.79,73.79,0,0,0-14.54,22.94,77,77,0,0,0,0,56.24A73.91,73.91,0,0,0,346,191.64,68.59,68.59,0,0,0,367.65,207a62.92,62.92,0,0,0,26.43,5.74,63.62,63.62,0,0,0,33.43-9.37,68.83,68.83,0,0,0,24.2-24.62q-3.21-2.67-10.63-5.74-9.93-4.34-17.9-4.33h-1a38.51,38.51,0,0,1-12.45,10.21,34.45,34.45,0,0,1-30.49.42,36.9,36.9,0,0,1-12-9A44.36,44.36,0,0,1,359.11,157a47.19,47.19,0,0,1,0-32.74A44.53,44.53,0,0,1,367.23,110.78Z"/><path d="M591.15,140.58a86.88,86.88,0,0,0-.84-12,81.77,81.77,0,0,0-7.7-23.78,70.43,70.43,0,0,0-14.12-19A65,65,0,0,0,548.9,73a61,61,0,0,0-23.49-4.62A62.93,62.93,0,0,0,499,74.14a68.66,68.66,0,0,0-21.68,15.38,73.82,73.82,0,0,0-14.55,22.94,77,77,0,0,0,0,56.24,73.94,73.94,0,0,0,14.55,22.94A68.66,68.66,0,0,0,499,207a62.93,62.93,0,0,0,26.44,5.74q17.05,0,29.09-3.78a82.56,82.56,0,0,0,20.84-10.49,51.72,51.72,0,0,0-7.27-9.51q-8-8.67-16.37-11.19-7.55,5-21.54,5c-1.49,0-3.08,0-4.75-.14a38.44,38.44,0,0,1-22.81-8.81A40.28,40.28,0,0,1,489,152.61H590.31A85,85,0,0,0,591.15,140.58ZM489,128.55A43.43,43.43,0,0,1,501.91,107a32.56,32.56,0,0,1,22.24-8.54A33.11,33.11,0,0,1,546.53,107a41.76,41.76,0,0,1,13,21.54Z"/><path d="M745.55,212.76V140.58a73.78,73.78,0,0,0-8.25-34.41,69.69,69.69,0,0,0-22-25.6,64.61,64.61,0,0,0-75.68.14V68.4a8,8,0,0,0-1.53-.14,56.89,56.89,0,0,0-10.22,1.4q-11.61,2.24-18.32,7.55V212.76h30.07V140.58a46.24,46.24,0,0,1,2.94-16.37,44.71,44.71,0,0,1,8.11-13.43,40,40,0,0,1,12-9,34.43,34.43,0,0,1,14.83-3.36,33.54,33.54,0,0,1,14.69,3.36,37.69,37.69,0,0,1,12,9,41.33,41.33,0,0,1,8.11,13.43,46.24,46.24,0,0,1,2.94,16.37v72.18Z"/><path d="M29.84,253.06V29.84H869V80.71a63.75,63.75,0,0,0-37.9-12.31,62.93,62.93,0,0,0-26.44,5.74A68.66,68.66,0,0,0,783,89.52a73.82,73.82,0,0,0-14.55,22.94,77,77,0,0,0,0,56.24A73.94,73.94,0,0,0,783,191.64,68.66,68.66,0,0,0,804.7,207a62.93,62.93,0,0,0,26.44,5.74A63.75,63.75,0,0,0,869,200.45v12.31h30.08V16a16,16,0,0,0-16-16H0V282.9H883.83A16.17,16.17,0,0,0,900,266.73V253.06ZM866,157a41,41,0,0,1-8.12,13.42,35.11,35.11,0,0,1-12,9,33.63,33.63,0,0,1-14.68,3.35,34.53,34.53,0,0,1-14.83-3.35,36.9,36.9,0,0,1-12-9A44.34,44.34,0,0,1,796.17,157a47,47,0,0,1,0-32.74,44.51,44.51,0,0,1,8.11-13.43,39.77,39.77,0,0,1,12-9,34.4,34.4,0,0,1,14.83-3.36,33.5,33.5,0,0,1,14.68,3.36,37.69,37.69,0,0,1,12,9A41.18,41.18,0,0,1,866,124.21,45.18,45.18,0,0,1,866,157Z"/></svg>